# xmcd
#
# Track frame offsets:
#	150
#	14547
#	32276
#	49804
#	65954
#	84085
#	102924
#	123910
#	139284
#	154859
#	173498
#	187646
#	203562
#	221496
#	241695
#
# Disc length: 3430 seconds
#
# Revision: 0
# Processed by: cddbd v1.5PL3 Copyright (c) Steve Scherf et al.
# Submitted via: dBpowerAMP V4.0
#
DISCID=ba0d640f
DTITLE=Reba McEntire - Greatest Hits Volume III: I'm A Survivor 
DYEAR=2001
DGENRE=Country
TTITLE0=Track 01 - I'm A Survivor
TTITLE1=Track 02 - Forever Love
TTITLE2=Track 03 - Heart Is a Lonely Hunter 
TTITLE3=Track 04 - And Still
TTITLE4=Track 05 - If You See Him, If You See Her - Brooks and Dunn
TTITLE5=Track 06 - Night the Lights Went Out in Georgia
TTITLE6=Track 07 - Fallin' Out of Love
TTITLE7=Track 08 - Heart Won't Lie - Vince Gill
TTITLE8=Track 09 - Take It Back
TTITLE9=Track 10 - She Thinks His Name Was John
TTITLE10=Track 11 - Fear of Being Alone
TTITLE11=Track 12 - Why Haven't I Heard From You
TTITLE12=Track 13 - One Honest Heart
TTITLE13=Track 14 - Myself Without You
TTITLE14=Track 15 - Sweet Music Man
EXTD=\n\n\n\n\n
EXTT0=
EXTT1=
EXTT2=
EXTT3=
EXTT4=
EXTT5=
EXTT6=
EXTT7=
EXTT8=
EXTT9=
EXTT10=
EXTT11=
EXTT12=
EXTT13=
EXTT14=
PLAYORDER=
